<svg width="671" height="730" viewBox="0 0 671 730" fill="none" xmlns="http://www.w3.org/2000/svg">
<path d="M363.533 0H379.72C394.173 1.12 409.173 2.17333 422.427 8.6C426.08 10.52 430.947 13.7867 429.56 18.6267C426.854 23.2933 421.187 24.8267 416.414 26.4533C392.96 32.8 368.04 32.48 344.267 28.08C336.133 26.0933 327.013 24.28 321.173 17.8133C318.107 14.0933 322.413 9.88 325.667 8.14667C337.187 1.84 350.667 0.893333 363.533 0V0Z" fill="black"></path>
<path d="M270.334 10.2667C280.24 8.97334 290.614 7.73334 300.387 10.5467C305.067 11.7333 309.92 16.0667 308.32 21.3733C305.48 29.3333 298.28 34.5867 291.92 39.6667C266.293 58.3067 236.467 70.6 205.854 78.3067C192.08 81.5067 177.8 84.32 163.64 82.2933C159.467 81.4 154.307 80.2 152.414 75.9067C151.094 69.4933 155.947 64.04 159.88 59.5867C172.44 46.84 188.574 38.3867 204.667 30.9733C225.68 21.6933 247.587 13.9867 270.334 10.2667V10.2667Z" fill="black"></path>
<path d="M130.467 91.68C141 89.4933 152.84 91.96 160.6 99.72C171.24 109.773 175.213 124.787 175.933 138.973C177.08 163.573 171.947 187.987 165.013 211.453C150.347 259.653 125.8 305.787 89.1199 340.867C76.4132 352.56 61.7732 363.547 44.4265 366.747C31.9732 369.2 17.72 364.533 10.8666 353.467C4.03996 342.413 1.96 329.2 1.08 316.44C-0.199995 293.293 3.61326 270.107 9.99993 247.92C17.2133 222.987 28.1199 199.24 41.2799 176.907C53.9999 155.28 68.6799 134.533 86.9599 117.2C99.3332 105.747 113.613 95.12 130.467 91.68Z" fill="black"></path>
<path d="M333 143.72C363.8 139.933 395.68 146.373 422.8 161.387C438.267 169.653 451.96 181.32 461.814 195.893C477.014 217.733 485.08 245.6 479.494 272.04C475.614 291.307 464.094 308.347 449.387 321.093C426.56 341.653 396.32 353.467 365.694 354.653C322.24 356.733 277.72 338.867 249.214 305.733C233.427 287.44 225.88 262.547 228.454 238.547C231.054 211.813 245.054 186.427 266.2 169.88C285.494 155.253 309.067 146.68 333 143.72V143.72Z" fill="black"></path>
<path d="M514.067 246.987C524.12 235.987 538.787 229.413 553.707 229.307C574.613 228.747 594.587 238.093 610.587 250.987C627.947 264.867 640.413 283.813 650.2 303.533C662.453 328.427 669.52 355.787 671.04 383.48V399.32C669.88 416.373 667 433.52 660.253 449.307C651.307 469.387 633.733 486.347 612.013 491.52C595.333 495.627 577.48 491.493 563.04 482.6C547.12 472.84 534.24 458.853 523.253 443.92C494.627 404.013 481.56 352.8 489.133 304.147C492.64 283.547 500.013 262.827 514.067 246.987V246.987Z" fill="black"></path>
<path d="M121 347.56C145.413 343.533 170.227 350.773 191.854 361.867C213.187 373.067 232.387 388.72 246.64 408.227C261.107 428.24 272.093 451.373 275.093 476.093C278.147 499.68 272.013 525.36 254.987 542.613C241.213 555.733 221.613 560.813 203 560.987C174.12 561.133 146.173 549.027 124.307 530.6C108.173 516.853 94.0536 500.6 83.4002 482.24C71.8936 462.227 64.4535 439.253 65.6668 415.973C66.4268 395.747 74.9869 375.467 90.5602 362.253C99.2002 354.813 109.707 349.427 121 347.56V347.56Z" fill="black"></path>
<path d="M377 471.587C390.853 469.973 405.04 470.507 418.586 473.947C430.2 477.093 441.093 483.693 448.453 493.32C453.96 500.507 456.986 509.693 456.2 518.773C455.386 529.373 450.093 539.067 443.453 547.147C426.88 567.547 403 581.2 377.76 587.787C356.213 593.293 332.946 594.133 311.653 587.12C300.986 583.64 290.453 577.6 284.8 567.56C277.52 555.04 279.2 539.187 285.44 526.6C292.893 510.853 306.706 499.213 321.453 490.493C338.36 480.4 357.426 473.867 377 471.587V471.587Z" fill="black"></path>
<path d="M620.867 507.427C627.827 506.347 635.693 507.533 640.8 512.8C647.707 519.893 649.107 530.427 648.853 539.907C647.96 561 639.213 580.88 627.973 598.427C614.2 619.973 596.52 639.64 574.267 652.627C564.347 658.053 553.173 663.387 541.573 661.293C532.987 660.08 525.44 653.947 522.493 645.813C518.267 634.507 520.213 622.013 523.467 610.733C529.947 589.293 541.04 569.36 555.107 551.987C565.893 538.787 578.493 526.867 593.12 518C601.627 512.893 610.947 508.76 620.867 507.427V507.427Z" fill="black"></path>
<path d="M482.334 655.56C491.347 654.467 500.92 654.133 509.467 657.68C513.48 659.347 516.52 663.547 515.92 668.013C515 675.587 509.88 681.8 504.76 687.12C494.627 697.227 481.84 704.093 468.88 709.867C454.374 716.027 438.867 720.44 423.027 720.573C416.707 720.52 409.814 719.84 404.84 715.56C401.054 712.467 399.814 707.013 401.467 702.493C404.12 694.467 410.76 688.667 417.093 683.467C436.04 668.96 458.64 658.907 482.334 655.56V655.56Z" fill="black"></path>
<path d="M326.467 699.693C342.387 697.613 358.853 697.827 374.427 702.053C379.373 703.64 384.693 705.36 388.333 709.267C390.853 712.053 389.107 716.173 386.48 718.187C380.067 723.44 371.733 725.533 363.773 727.107C345.88 729.893 327.24 730.053 309.72 725.067C304.707 723.373 298.667 721.387 296.493 716.067C295.187 711.613 299.173 708.2 302.653 706.32C310.013 702.467 318.333 700.96 326.467 699.693V699.693Z" fill="black"></path>
</svg>