<?xml version="1.0" encoding="UTF-8"?>
<svg id="Layer_1" xmlns="http://www.w3.org/2000/svg" version="1.1" viewBox="0 0 370.12 41.25">
  <defs>
    <style>
      .st0 { fill: #c9db33; }
      .st1 { fill: #fff; }
    </style>
  </defs>
  <path class="st1" d="M0,37.5l3.99-10.71c2.9,1.81,8.17,3.45,12.52,3.45,2.96,0,4.29-.97,4.29-2.66,0-.54-.3-1.09-1.27-1.45-.97-.3-3.27-.79-6.05-1.51-2.9-.73-4.96-1.69-6.65-2.96-1.81-1.39-3.27-3.87-3.27-6.96C3.57,6.16,10.46,0,22.2,0,28.37,0,33.93,1.63,36.96,3.38l-4.05,10.52c-2.36-1.39-7.38-2.84-11.13-2.84-2.3,0-4.11.67-4.11,2.3,0,.6.36,1.03,1.09,1.27,1.51.36,3.27.73,6.23,1.51,3.08.85,5.38,1.94,6.77,3.21,2.12,1.81,3.08,4.48,3.08,6.9,0,8.29-5.75,15-18.45,15C9.74,41.25,3.27,39.49,0,37.5Z"/>
  <path class="st1" d="M61.09.72c10.52,0,16.03,4.78,16.03,13,0,10.22-6.9,17.9-19.54,17.9h-5.08l-1.88,8.89h-14.15L44.87.72h16.21ZM57.46,21.1c3.27,0,5.5-1.81,5.5-5.32,0-1.81-.91-3.15-3.57-3.15h-2.84l-1.81,8.47h2.72Z"/>
  <path class="st1" d="M122.47,17.54c0,13.73-10.16,23.71-24.86,23.71-12.4,0-18.93-7.56-18.93-17.6C78.68,10.16,88.72,0,103.6,0c12.34,0,18.87,7.92,18.87,17.54ZM93.8,22.38c0,3.63,2.06,5.99,5.38,5.99,4.78,0,8.1-4.29,8.1-9.56,0-3.45-2-5.93-5.38-5.93-4.84,0-8.1,4.29-8.1,9.5Z"/>
  <path class="st1" d="M130.94.72h17.3c10.71,0,15.67,5.5,15.67,12.58,0,6.29-2.84,10.83-7.74,13.37v.12l3.39,13.73h-14.46l-2.84-11.25h-3.08l-2.36,11.25h-14.28L130.94.72ZM144.85,19.65c3.39,0,5.08-1.63,5.08-4.66,0-1.69-1.15-2.84-3.87-2.84h-3.27l-1.57,7.5h3.63Z"/>
  <path class="st1" d="M177.87,13.12h-10.4l2.6-12.4h34.96l-2.6,12.4h-10.4l-5.81,27.4h-14.15l5.81-27.4Z"/>
  <path class="st0" d="M201.09,31.15l13.55-14.4c.97-1.03,3.99-3.57,3.99-3.57v-.06h-13.43l2.6-12.4h33.99l-1.94,9.31-13.73,14.64c-1.09,1.15-3.81,3.39-3.81,3.39v.12h13.67l-2.6,12.34h-34.23l1.94-9.38Z"/>
  <path class="st0" d="M284.13,17.54c0,13.73-10.16,23.71-24.86,23.71-12.4,0-18.93-7.56-18.93-17.6C240.34,10.16,250.38,0,265.26,0c12.34,0,18.87,7.92,18.87,17.54ZM255.46,22.38c0,3.63,2.06,5.99,5.38,5.99,4.78,0,8.11-4.29,8.11-9.56,0-3.45-2-5.93-5.38-5.93-4.84,0-8.11,4.29-8.11,9.5Z"/>
  <path class="st0" d="M292.53.72h14.4l8.89,17.18.12-.06s.67-4.84,1.09-6.77l2.12-10.34h14.27l-8.41,39.8h-13.31l-9.62-18.51-.18.06s-.73,5.44-1.03,7.08l-2.42,11.37h-14.28L292.53.72Z"/>
  <path class="st0" d="M348.6,24.98l-.91,4.23h17.18l-2.36,11.31h-31.45L339.46.72h30.67l-2.36,11.37h-16.45l-.79,3.87h13.55l-1.94,9.01h-13.55Z"/>
</svg>
