<svg width="804" height="804" viewBox="0 0 804 804" fill="none" xmlns="http://www.w3.org/2000/svg">
<path d="M372.253 1.49334C447.467 -4.42666 524.293 12.0267 590.88 47.4667C594.84 49.9867 600.493 51.28 602.213 56.16C617.947 97.8267 620.227 144.387 608.6 187.387C599.293 222.053 580.987 254.213 556.08 280.04C519.307 318.387 467.8 342.52 414.653 345.147C404.893 346.213 395.027 346 385.28 344.907C343.36 341.867 302.467 325.867 269.6 299.667C219.627 260.613 188.2 198.307 188.293 134.707C187.547 107.627 192.493 80.5067 202.173 55.24C203.213 52.04 206.747 51.0667 209.347 49.4667C259.413 22.12 315.373 5.69334 372.253 1.49334M382.96 32.1867C335.053 38.2 291.507 69.8667 270.653 113.347C247.587 159.387 252.04 217.64 281.733 259.693C297.787 283.187 320.893 301.747 347.267 312.373C372.293 322.653 400.24 325.667 426.88 320.96C461.107 315.08 493.053 296.453 514.867 269.4C538.507 241.107 550.44 203.427 547.467 166.68C544.92 119.053 516.093 74.2667 474.893 50.6667C447.48 34.3333 414.52 28.3067 382.96 32.1867V32.1867Z" fill="black"></path>
<path d="M99.2933 138.013C107.173 129.507 114.573 120.387 123.693 113.16C130.76 177.933 161.093 240 208.44 284.853C257.573 332.547 324.907 360.867 393.32 362.773C457.773 365.053 522.827 344.067 573.68 304.373C618.72 269.693 652.813 220.987 669.627 166.653C675.227 149.267 678.64 131.24 680.92 113.133C705.413 137.013 727.48 163.693 744.787 193.24C737.067 207.853 726.747 220.96 716.8 234.107C672.88 289.613 614.067 333.213 548.107 358.893C535.227 363.867 522.08 368.08 509.187 372.973C538.227 366.587 567.307 359.88 595.373 349.853C644.653 333 691.613 309.44 734.653 280.133C748.333 271.147 761.133 260.947 774.16 251.08C786.093 280.493 794.347 311.36 799.213 342.72C705.4 373.867 607.773 393.6 509.28 401.76C543.933 402.827 578.613 401.987 613.28 402.28C676.573 402.213 739.88 402.293 803.173 402.24C803.627 444.92 796.373 487.573 783.147 528.12C780.24 526.92 777.507 525.373 774.907 523.653C702.733 480.48 622.907 450.2 540.28 434.493C535.533 433.653 530.8 432.253 525.92 432.707C614.187 460.48 691.787 520.533 741.493 598.533C743.213 601.253 745.173 603.88 746.413 606.893C745.973 610.427 743.253 613.12 741.56 616.12C728.147 636.947 713.227 656.84 696.173 674.827C692.427 678.88 688.64 682.893 684.933 686.973C684.293 687.187 683.027 687.6 682.387 687.8C676.693 635.347 656.187 584.493 623.227 543.24C595.533 508.093 559.2 479.813 518.4 461.467C466.227 437.853 406.747 431.133 350.547 441.88C287.547 453.707 228.933 487.96 188.147 537.467C151.707 580.827 129.587 635.613 124.427 691.947C99.5866 667.88 77.5733 640.813 59.48 611.32C58.4 609.96 59.6933 608.427 60.28 607.213C106.773 529.96 180.147 469.333 264.787 438.253C271.56 435.813 278.12 432.627 285.227 431.213C208.667 443.067 134.36 468.373 65.6666 504.107C50.7066 512.147 35.9466 520.573 21.3466 529.253C7.54665 488.453 0.666647 445.333 0.47998 402.307C98.6666 402.08 196.853 402.533 295.04 402.093C253.027 397.667 210.987 392.667 169.467 384.64C113.96 374.44 59.2666 360.013 5.59998 342.6C5.39998 337.08 6.55998 331.68 7.70665 326.333C12.1733 301.413 19.8666 277.227 28.4666 253.467C31.1866 254.2 33.4 255.96 35.52 257.733C112.973 318.227 205.853 358.707 302.84 374.427C275.453 366.427 248.36 356.92 222.88 343.973C155.52 310.48 98.2666 257.4 59.2266 193.133C70.5333 173.373 84.6667 155.387 99.2933 138.013V138.013Z" fill="black"></path>
<path d="M381.973 458.427C415.107 455.747 448.96 459.827 479.907 472.253C525.733 490 564.88 524.28 588.773 567.213C618.253 619.227 624.08 683.827 604.573 740.32C602.853 744.173 602.64 749.453 598.68 751.813C532.587 789.067 455.733 806.84 380.013 802.587C321.213 799.333 263.093 783.173 211.293 755.093C207.84 752.96 203.053 751.667 201.84 747.293C196.533 732.4 192.293 717.08 190.08 701.4C185.24 662.787 189.56 622.613 205.493 586.907C215.2 563.987 229.28 543.053 246.187 524.84C281.48 487.307 330.6 463.053 381.973 458.427M397.533 480.147C359.533 481.08 322.253 497.907 296.24 525.6C270.253 552.733 255.187 590.293 256.12 627.92C255.987 653.16 263.373 678.2 276.053 699.933C299.827 740.84 344.493 769.173 391.907 771.76C404.4 773.573 417 771.56 429.36 769.667C478.547 760.52 521.667 724.307 538.72 677.213C547.68 654.48 549.453 629.507 546.533 605.4C540.68 563.2 515.147 524.373 478.853 502.093C454.76 486.88 425.987 479.187 397.533 480.147V480.147Z" fill="black"></path>
</svg>